<mxfile host="app.diagrams.net" modified="2021-04-28T10:33:31.230Z" agent="5.0 (Windows NT 10.0; Win64; x64) AppleWebKit/537.36 (KHTML, like Gecko) Chrome/90.0.4430.93 Safari/537.36" etag="f3XNLPiLop5_832Qcpy-" version="14.6.6" type="github">
  <diagram id="kwbziUqv7efPVH0OtAez" name="Page-1">
    <mxGraphModel dx="1704" dy="468" grid="1" gridSize="10" guides="1" tooltips="1" connect="1" arrows="1" fold="1" page="1" pageScale="1" pageWidth="850" pageHeight="1100" math="0" shadow="0">
      <root>
        <mxCell id="0" />
        <mxCell id="1" parent="0" />
        <mxCell id="lawATDH_7k0T81VRKeOm-1" value="Customer" style="rounded=0;whiteSpace=wrap;html=1;" vertex="1" parent="1">
          <mxGeometry x="-55" y="210" width="80" height="40" as="geometry" />
        </mxCell>
        <mxCell id="lawATDH_7k0T81VRKeOm-2" style="edgeStyle=orthogonalEdgeStyle;rounded=0;orthogonalLoop=1;jettySize=auto;html=1;exitX=0.5;exitY=1;exitDx=0;exitDy=0;" edge="1" parent="1" source="lawATDH_7k0T81VRKeOm-1" target="lawATDH_7k0T81VRKeOm-1">
          <mxGeometry relative="1" as="geometry" />
        </mxCell>
        <mxCell id="lawATDH_7k0T81VRKeOm-3" value="&lt;b&gt;C.address&lt;/b&gt;" style="ellipse;whiteSpace=wrap;html=1;" vertex="1" parent="1">
          <mxGeometry x="-130" y="100" width="70" height="50" as="geometry" />
        </mxCell>
        <mxCell id="lawATDH_7k0T81VRKeOm-4" value="C.email" style="ellipse;whiteSpace=wrap;html=1;" vertex="1" parent="1">
          <mxGeometry x="-115" y="8.38" width="70" height="45" as="geometry" />
        </mxCell>
        <mxCell id="lawATDH_7k0T81VRKeOm-5" value="C.name" style="ellipse;whiteSpace=wrap;html=1;" vertex="1" parent="1">
          <mxGeometry x="-70" y="55.25" width="70" height="42.5" as="geometry" />
        </mxCell>
        <mxCell id="lawATDH_7k0T81VRKeOm-6" value="C.id" style="ellipse;whiteSpace=wrap;html=1;" vertex="1" parent="1">
          <mxGeometry x="-25" y="2.5" width="70" height="40" as="geometry" />
        </mxCell>
        <mxCell id="lawATDH_7k0T81VRKeOm-7" value="" style="endArrow=none;html=1;entryX=0.5;entryY=1;entryDx=0;entryDy=0;exitX=0.5;exitY=0;exitDx=0;exitDy=0;" edge="1" parent="1" source="lawATDH_7k0T81VRKeOm-1" target="lawATDH_7k0T81VRKeOm-5">
          <mxGeometry width="50" height="50" relative="1" as="geometry">
            <mxPoint x="15" y="190" as="sourcePoint" />
            <mxPoint x="450" y="440" as="targetPoint" />
          </mxGeometry>
        </mxCell>
        <mxCell id="lawATDH_7k0T81VRKeOm-8" value="C.dob" style="ellipse;whiteSpace=wrap;html=1;" vertex="1" parent="1">
          <mxGeometry x="45" y="106.5" width="70" height="47" as="geometry" />
        </mxCell>
        <mxCell id="lawATDH_7k0T81VRKeOm-9" value="" style="endArrow=none;html=1;entryX=0.2;entryY=1;entryDx=0;entryDy=0;entryPerimeter=0;exitX=1;exitY=0;exitDx=0;exitDy=0;" edge="1" parent="1" source="lawATDH_7k0T81VRKeOm-1" target="lawATDH_7k0T81VRKeOm-8">
          <mxGeometry width="50" height="50" relative="1" as="geometry">
            <mxPoint x="30" y="220" as="sourcePoint" />
            <mxPoint x="80" y="170" as="targetPoint" />
          </mxGeometry>
        </mxCell>
        <mxCell id="lawATDH_7k0T81VRKeOm-10" value="" style="endArrow=none;html=1;entryX=0.5;entryY=1;entryDx=0;entryDy=0;exitX=0.138;exitY=0.025;exitDx=0;exitDy=0;exitPerimeter=0;" edge="1" parent="1" source="lawATDH_7k0T81VRKeOm-1" target="lawATDH_7k0T81VRKeOm-3">
          <mxGeometry width="50" height="50" relative="1" as="geometry">
            <mxPoint x="400" y="490" as="sourcePoint" />
            <mxPoint x="450" y="440" as="targetPoint" />
          </mxGeometry>
        </mxCell>
        <mxCell id="lawATDH_7k0T81VRKeOm-11" value="" style="endArrow=none;html=1;entryX=0.5;entryY=1;entryDx=0;entryDy=0;exitX=0.338;exitY=0.05;exitDx=0;exitDy=0;exitPerimeter=0;" edge="1" parent="1" source="lawATDH_7k0T81VRKeOm-1" target="lawATDH_7k0T81VRKeOm-4">
          <mxGeometry width="50" height="50" relative="1" as="geometry">
            <mxPoint x="-70" y="200" as="sourcePoint" />
            <mxPoint x="-20" y="40" as="targetPoint" />
          </mxGeometry>
        </mxCell>
        <mxCell id="lawATDH_7k0T81VRKeOm-12" value="" style="endArrow=none;html=1;entryX=0.5;entryY=1;entryDx=0;entryDy=0;exitX=0.75;exitY=0;exitDx=0;exitDy=0;" edge="1" parent="1" source="lawATDH_7k0T81VRKeOm-1" target="lawATDH_7k0T81VRKeOm-6">
          <mxGeometry width="50" height="50" relative="1" as="geometry">
            <mxPoint x="400" y="490" as="sourcePoint" />
            <mxPoint x="450" y="440" as="targetPoint" />
          </mxGeometry>
        </mxCell>
        <mxCell id="lawATDH_7k0T81VRKeOm-13" value="manage" style="rhombus;whiteSpace=wrap;html=1;" vertex="1" parent="1">
          <mxGeometry x="80" y="190" width="80" height="80" as="geometry" />
        </mxCell>
        <mxCell id="lawATDH_7k0T81VRKeOm-14" value="" style="endArrow=none;html=1;exitX=1;exitY=0.5;exitDx=0;exitDy=0;entryX=0;entryY=0.5;entryDx=0;entryDy=0;" edge="1" parent="1" source="lawATDH_7k0T81VRKeOm-1" target="lawATDH_7k0T81VRKeOm-13">
          <mxGeometry width="50" height="50" relative="1" as="geometry">
            <mxPoint y="260" as="sourcePoint" />
            <mxPoint x="40" y="220" as="targetPoint" />
          </mxGeometry>
        </mxCell>
        <mxCell id="lawATDH_7k0T81VRKeOm-15" value="Admin" style="rounded=0;whiteSpace=wrap;html=1;" vertex="1" parent="1">
          <mxGeometry x="220" y="210" width="70" height="40" as="geometry" />
        </mxCell>
        <mxCell id="lawATDH_7k0T81VRKeOm-16" value="" style="endArrow=none;html=1;entryX=0;entryY=0.5;entryDx=0;entryDy=0;" edge="1" parent="1" source="lawATDH_7k0T81VRKeOm-13" target="lawATDH_7k0T81VRKeOm-15">
          <mxGeometry width="50" height="50" relative="1" as="geometry">
            <mxPoint x="130" y="280" as="sourcePoint" />
            <mxPoint x="200.71067811865476" y="230" as="targetPoint" />
          </mxGeometry>
        </mxCell>
        <mxCell id="lawATDH_7k0T81VRKeOm-17" value="A.id" style="ellipse;whiteSpace=wrap;html=1;" vertex="1" parent="1">
          <mxGeometry x="140" y="130" width="60" height="40" as="geometry" />
        </mxCell>
        <mxCell id="lawATDH_7k0T81VRKeOm-18" value="A.address" style="ellipse;whiteSpace=wrap;html=1;" vertex="1" parent="1">
          <mxGeometry x="135" y="50.75" width="70" height="47" as="geometry" />
        </mxCell>
        <mxCell id="lawATDH_7k0T81VRKeOm-19" value="A.email" style="ellipse;whiteSpace=wrap;html=1;" vertex="1" parent="1">
          <mxGeometry x="290" y="80" width="70" height="40" as="geometry" />
        </mxCell>
        <mxCell id="lawATDH_7k0T81VRKeOm-20" value="A.dob" style="ellipse;whiteSpace=wrap;html=1;" vertex="1" parent="1">
          <mxGeometry x="300" y="130" width="60" height="40" as="geometry" />
        </mxCell>
        <mxCell id="lawATDH_7k0T81VRKeOm-21" value="" style="endArrow=none;html=1;entryX=1;entryY=1;entryDx=0;entryDy=0;" edge="1" parent="1" target="lawATDH_7k0T81VRKeOm-17">
          <mxGeometry width="50" height="50" relative="1" as="geometry">
            <mxPoint x="231" y="210" as="sourcePoint" />
            <mxPoint x="210" y="140" as="targetPoint" />
          </mxGeometry>
        </mxCell>
        <mxCell id="lawATDH_7k0T81VRKeOm-22" value="" style="endArrow=none;html=1;exitX=0.7;exitY=1.011;exitDx=0;exitDy=0;exitPerimeter=0;entryX=0.25;entryY=0;entryDx=0;entryDy=0;" edge="1" parent="1" source="lawATDH_7k0T81VRKeOm-18" target="lawATDH_7k0T81VRKeOm-15">
          <mxGeometry width="50" height="50" relative="1" as="geometry">
            <mxPoint x="170" y="130" as="sourcePoint" />
            <mxPoint x="220" y="80" as="targetPoint" />
          </mxGeometry>
        </mxCell>
        <mxCell id="lawATDH_7k0T81VRKeOm-23" value="" style="endArrow=none;html=1;entryX=0.5;entryY=1;entryDx=0;entryDy=0;exitX=0.414;exitY=-0.05;exitDx=0;exitDy=0;exitPerimeter=0;" edge="1" parent="1" source="lawATDH_7k0T81VRKeOm-15">
          <mxGeometry width="50" height="50" relative="1" as="geometry">
            <mxPoint x="230" y="200" as="sourcePoint" />
            <mxPoint x="215" y="41.5" as="targetPoint" />
          </mxGeometry>
        </mxCell>
        <mxCell id="lawATDH_7k0T81VRKeOm-24" value="" style="endArrow=none;html=1;exitX=0.5;exitY=0;exitDx=0;exitDy=0;entryX=0.271;entryY=1.05;entryDx=0;entryDy=0;entryPerimeter=0;" edge="1" parent="1" source="lawATDH_7k0T81VRKeOm-15" target="lawATDH_7k0T81VRKeOm-19">
          <mxGeometry width="50" height="50" relative="1" as="geometry">
            <mxPoint x="260" y="130" as="sourcePoint" />
            <mxPoint x="310" y="80" as="targetPoint" />
          </mxGeometry>
        </mxCell>
        <mxCell id="lawATDH_7k0T81VRKeOm-25" value="" style="endArrow=none;html=1;exitX=0.629;exitY=-0.075;exitDx=0;exitDy=0;exitPerimeter=0;" edge="1" parent="1" source="lawATDH_7k0T81VRKeOm-15" target="lawATDH_7k0T81VRKeOm-20">
          <mxGeometry width="50" height="50" relative="1" as="geometry">
            <mxPoint x="280" y="180" as="sourcePoint" />
            <mxPoint x="330" y="130" as="targetPoint" />
          </mxGeometry>
        </mxCell>
        <mxCell id="lawATDH_7k0T81VRKeOm-26" value="Assign&amp;nbsp;" style="rhombus;whiteSpace=wrap;html=1;" vertex="1" parent="1">
          <mxGeometry x="360" y="190" width="80" height="80" as="geometry" />
        </mxCell>
        <mxCell id="lawATDH_7k0T81VRKeOm-27" value="Event" style="rounded=0;whiteSpace=wrap;html=1;" vertex="1" parent="1">
          <mxGeometry x="530" y="210" width="80" height="40" as="geometry" />
        </mxCell>
        <mxCell id="lawATDH_7k0T81VRKeOm-28" value="" style="endArrow=none;html=1;exitX=1;exitY=0.5;exitDx=0;exitDy=0;entryX=0;entryY=0.5;entryDx=0;entryDy=0;" edge="1" parent="1" source="lawATDH_7k0T81VRKeOm-15" target="lawATDH_7k0T81VRKeOm-26">
          <mxGeometry width="50" height="50" relative="1" as="geometry">
            <mxPoint x="400" y="490" as="sourcePoint" />
            <mxPoint x="450" y="440" as="targetPoint" />
          </mxGeometry>
        </mxCell>
        <mxCell id="lawATDH_7k0T81VRKeOm-29" value="" style="endArrow=none;html=1;exitX=1;exitY=0.5;exitDx=0;exitDy=0;entryX=0;entryY=0.5;entryDx=0;entryDy=0;" edge="1" parent="1" source="lawATDH_7k0T81VRKeOm-26" target="lawATDH_7k0T81VRKeOm-27">
          <mxGeometry width="50" height="50" relative="1" as="geometry">
            <mxPoint x="400" y="490" as="sourcePoint" />
            <mxPoint x="450" y="440" as="targetPoint" />
          </mxGeometry>
        </mxCell>
        <mxCell id="lawATDH_7k0T81VRKeOm-30" style="edgeStyle=orthogonalEdgeStyle;rounded=0;orthogonalLoop=1;jettySize=auto;html=1;exitX=0.5;exitY=1;exitDx=0;exitDy=0;" edge="1" parent="1" source="lawATDH_7k0T81VRKeOm-27" target="lawATDH_7k0T81VRKeOm-27">
          <mxGeometry relative="1" as="geometry" />
        </mxCell>
        <mxCell id="lawATDH_7k0T81VRKeOm-31" value="E.id" style="ellipse;whiteSpace=wrap;html=1;" vertex="1" parent="1">
          <mxGeometry x="410" y="110" width="70" height="40" as="geometry" />
        </mxCell>
        <mxCell id="lawATDH_7k0T81VRKeOm-32" value="Event_details" style="ellipse;whiteSpace=wrap;html=1;" vertex="1" parent="1">
          <mxGeometry x="425" y="50" width="105" height="40" as="geometry" />
        </mxCell>
        <mxCell id="lawATDH_7k0T81VRKeOm-33" style="edgeStyle=orthogonalEdgeStyle;rounded=0;orthogonalLoop=1;jettySize=auto;html=1;exitX=0.5;exitY=1;exitDx=0;exitDy=0;" edge="1" parent="1" source="lawATDH_7k0T81VRKeOm-32" target="lawATDH_7k0T81VRKeOm-32">
          <mxGeometry relative="1" as="geometry" />
        </mxCell>
        <mxCell id="lawATDH_7k0T81VRKeOm-34" value="Event_discount" style="ellipse;whiteSpace=wrap;html=1;" vertex="1" parent="1">
          <mxGeometry x="500" y="5" width="120" height="45" as="geometry" />
        </mxCell>
        <mxCell id="lawATDH_7k0T81VRKeOm-35" value="E.id" style="ellipse;whiteSpace=wrap;html=1;" vertex="1" parent="1">
          <mxGeometry x="580" y="53" width="70" height="47" as="geometry" />
        </mxCell>
        <mxCell id="lawATDH_7k0T81VRKeOm-36" value="E.password" style="ellipse;whiteSpace=wrap;html=1;" vertex="1" parent="1">
          <mxGeometry x="660" y="82.5" width="90" height="60" as="geometry" />
        </mxCell>
        <mxCell id="lawATDH_7k0T81VRKeOm-37" value="" style="endArrow=none;html=1;entryX=0.686;entryY=1.025;entryDx=0;entryDy=0;entryPerimeter=0;exitX=0.163;exitY=0;exitDx=0;exitDy=0;exitPerimeter=0;" edge="1" parent="1" source="lawATDH_7k0T81VRKeOm-27" target="lawATDH_7k0T81VRKeOm-31">
          <mxGeometry width="50" height="50" relative="1" as="geometry">
            <mxPoint x="520" y="210" as="sourcePoint" />
            <mxPoint x="500" y="150" as="targetPoint" />
          </mxGeometry>
        </mxCell>
        <mxCell id="lawATDH_7k0T81VRKeOm-38" value="" style="endArrow=none;html=1;entryX=0.619;entryY=1.025;entryDx=0;entryDy=0;entryPerimeter=0;exitX=0.25;exitY=0;exitDx=0;exitDy=0;" edge="1" parent="1" source="lawATDH_7k0T81VRKeOm-27" target="lawATDH_7k0T81VRKeOm-32">
          <mxGeometry width="50" height="50" relative="1" as="geometry">
            <mxPoint x="520" y="200" as="sourcePoint" />
            <mxPoint x="530" y="80" as="targetPoint" />
          </mxGeometry>
        </mxCell>
        <mxCell id="lawATDH_7k0T81VRKeOm-39" value="" style="endArrow=none;html=1;exitX=0.363;exitY=-0.025;exitDx=0;exitDy=0;exitPerimeter=0;" edge="1" parent="1" source="lawATDH_7k0T81VRKeOm-27" target="lawATDH_7k0T81VRKeOm-34">
          <mxGeometry width="50" height="50" relative="1" as="geometry">
            <mxPoint x="530" y="90" as="sourcePoint" />
            <mxPoint x="580" y="40" as="targetPoint" />
          </mxGeometry>
        </mxCell>
        <mxCell id="lawATDH_7k0T81VRKeOm-40" value="" style="endArrow=none;html=1;exitX=0.5;exitY=0;exitDx=0;exitDy=0;entryX=0;entryY=1;entryDx=0;entryDy=0;" edge="1" parent="1" source="lawATDH_7k0T81VRKeOm-27" target="lawATDH_7k0T81VRKeOm-35">
          <mxGeometry width="50" height="50" relative="1" as="geometry">
            <mxPoint x="570" y="140" as="sourcePoint" />
            <mxPoint x="591" y="100" as="targetPoint" />
          </mxGeometry>
        </mxCell>
        <mxCell id="lawATDH_7k0T81VRKeOm-41" value="" style="endArrow=none;html=1;" edge="1" parent="1">
          <mxGeometry width="50" height="50" relative="1" as="geometry">
            <mxPoint x="581" y="210" as="sourcePoint" />
            <mxPoint x="681.944138376803" y="58.03465739959802" as="targetPoint" />
          </mxGeometry>
        </mxCell>
        <mxCell id="lawATDH_7k0T81VRKeOm-42" value="" style="endArrow=none;html=1;entryX=0;entryY=1;entryDx=0;entryDy=0;exitX=0.75;exitY=0;exitDx=0;exitDy=0;" edge="1" parent="1" source="lawATDH_7k0T81VRKeOm-27" target="lawATDH_7k0T81VRKeOm-36">
          <mxGeometry width="50" height="50" relative="1" as="geometry">
            <mxPoint x="400" y="490" as="sourcePoint" />
            <mxPoint x="450" y="440" as="targetPoint" />
          </mxGeometry>
        </mxCell>
        <mxCell id="lawATDH_7k0T81VRKeOm-43" value="Choose" style="rhombus;whiteSpace=wrap;html=1;" vertex="1" parent="1">
          <mxGeometry x="220" y="300" width="80" height="80" as="geometry" />
        </mxCell>
        <mxCell id="lawATDH_7k0T81VRKeOm-44" value="" style="endArrow=none;html=1;entryX=0.5;entryY=1;entryDx=0;entryDy=0;exitX=0;exitY=0.5;exitDx=0;exitDy=0;" edge="1" parent="1" source="lawATDH_7k0T81VRKeOm-43" target="lawATDH_7k0T81VRKeOm-1">
          <mxGeometry width="50" height="50" relative="1" as="geometry">
            <mxPoint x="400" y="490" as="sourcePoint" />
            <mxPoint x="450" y="440" as="targetPoint" />
          </mxGeometry>
        </mxCell>
        <mxCell id="lawATDH_7k0T81VRKeOm-45" value="" style="endArrow=none;html=1;exitX=1;exitY=0.5;exitDx=0;exitDy=0;entryX=0.4;entryY=1.05;entryDx=0;entryDy=0;entryPerimeter=0;" edge="1" parent="1" source="lawATDH_7k0T81VRKeOm-43" target="lawATDH_7k0T81VRKeOm-27">
          <mxGeometry width="50" height="50" relative="1" as="geometry">
            <mxPoint x="550" y="300" as="sourcePoint" />
            <mxPoint x="600" y="250" as="targetPoint" />
          </mxGeometry>
        </mxCell>
        <mxCell id="lawATDH_7k0T81VRKeOm-46" value="manage" style="rhombus;whiteSpace=wrap;html=1;" vertex="1" parent="1">
          <mxGeometry x="-60" y="400" width="80" height="80" as="geometry" />
        </mxCell>
        <mxCell id="lawATDH_7k0T81VRKeOm-47" value="" style="endArrow=none;html=1;exitX=0.5;exitY=0;exitDx=0;exitDy=0;entryX=0.425;entryY=1.025;entryDx=0;entryDy=0;entryPerimeter=0;" edge="1" parent="1" source="lawATDH_7k0T81VRKeOm-46" target="lawATDH_7k0T81VRKeOm-1">
          <mxGeometry width="50" height="50" relative="1" as="geometry">
            <mxPoint x="-50" y="300" as="sourcePoint" />
            <mxPoint y="250" as="targetPoint" />
          </mxGeometry>
        </mxCell>
        <mxCell id="lawATDH_7k0T81VRKeOm-48" value="Manager" style="rounded=0;whiteSpace=wrap;html=1;" vertex="1" parent="1">
          <mxGeometry x="70" y="420" width="110" height="40" as="geometry" />
        </mxCell>
        <mxCell id="lawATDH_7k0T81VRKeOm-49" value="" style="endArrow=none;html=1;exitX=1;exitY=0.5;exitDx=0;exitDy=0;entryX=0;entryY=0.5;entryDx=0;entryDy=0;" edge="1" parent="1" source="lawATDH_7k0T81VRKeOm-46" target="lawATDH_7k0T81VRKeOm-48">
          <mxGeometry width="50" height="50" relative="1" as="geometry">
            <mxPoint x="20" y="470" as="sourcePoint" />
            <mxPoint x="70" y="420" as="targetPoint" />
          </mxGeometry>
        </mxCell>
        <mxCell id="lawATDH_7k0T81VRKeOm-50" value="manage" style="rhombus;whiteSpace=wrap;html=1;" vertex="1" parent="1">
          <mxGeometry x="330" y="340" width="80" height="80" as="geometry" />
        </mxCell>
        <mxCell id="lawATDH_7k0T81VRKeOm-51" value="" style="endArrow=none;html=1;exitX=1;exitY=0.5;exitDx=0;exitDy=0;entryX=0;entryY=0.5;entryDx=0;entryDy=0;" edge="1" parent="1" source="lawATDH_7k0T81VRKeOm-48" target="lawATDH_7k0T81VRKeOm-50">
          <mxGeometry width="50" height="50" relative="1" as="geometry">
            <mxPoint x="310" y="420" as="sourcePoint" />
            <mxPoint x="360" y="370" as="targetPoint" />
          </mxGeometry>
        </mxCell>
        <mxCell id="lawATDH_7k0T81VRKeOm-52" value="assign" style="rhombus;whiteSpace=wrap;html=1;" vertex="1" parent="1">
          <mxGeometry x="385" y="410" width="80" height="80" as="geometry" />
        </mxCell>
        <mxCell id="lawATDH_7k0T81VRKeOm-53" value="" style="endArrow=none;html=1;exitX=1;exitY=0.75;exitDx=0;exitDy=0;entryX=0;entryY=0.5;entryDx=0;entryDy=0;" edge="1" parent="1" source="lawATDH_7k0T81VRKeOm-48" target="lawATDH_7k0T81VRKeOm-52">
          <mxGeometry width="50" height="50" relative="1" as="geometry">
            <mxPoint x="230" y="640" as="sourcePoint" />
            <mxPoint x="280" y="590" as="targetPoint" />
          </mxGeometry>
        </mxCell>
        <mxCell id="lawATDH_7k0T81VRKeOm-54" value="" style="endArrow=none;html=1;exitX=1;exitY=0.5;exitDx=0;exitDy=0;entryX=0.613;entryY=1;entryDx=0;entryDy=0;entryPerimeter=0;" edge="1" parent="1" source="lawATDH_7k0T81VRKeOm-50" target="lawATDH_7k0T81VRKeOm-27">
          <mxGeometry width="50" height="50" relative="1" as="geometry">
            <mxPoint x="490" y="400" as="sourcePoint" />
            <mxPoint x="540" y="350" as="targetPoint" />
          </mxGeometry>
        </mxCell>
        <mxCell id="lawATDH_7k0T81VRKeOm-55" value="Event_booking" style="rounded=0;whiteSpace=wrap;html=1;" vertex="1" parent="1">
          <mxGeometry x="560" y="430" width="105" height="40" as="geometry" />
        </mxCell>
        <mxCell id="lawATDH_7k0T81VRKeOm-56" value="" style="endArrow=none;html=1;exitX=1;exitY=0.5;exitDx=0;exitDy=0;entryX=0;entryY=0.5;entryDx=0;entryDy=0;" edge="1" parent="1" source="lawATDH_7k0T81VRKeOm-52" target="lawATDH_7k0T81VRKeOm-55">
          <mxGeometry width="50" height="50" relative="1" as="geometry">
            <mxPoint x="490" y="480" as="sourcePoint" />
            <mxPoint x="540" y="430" as="targetPoint" />
          </mxGeometry>
        </mxCell>
        <mxCell id="lawATDH_7k0T81VRKeOm-57" value="M.address" style="ellipse;whiteSpace=wrap;html=1;" vertex="1" parent="1">
          <mxGeometry x="-25" y="505" width="80" height="45" as="geometry" />
        </mxCell>
        <mxCell id="lawATDH_7k0T81VRKeOm-58" value="M.email" style="ellipse;whiteSpace=wrap;html=1;" vertex="1" parent="1">
          <mxGeometry y="560" width="85" height="40" as="geometry" />
        </mxCell>
        <mxCell id="lawATDH_7k0T81VRKeOm-59" value="M.name" style="ellipse;whiteSpace=wrap;html=1;" vertex="1" parent="1">
          <mxGeometry x="135" y="570" width="90" height="40" as="geometry" />
        </mxCell>
        <mxCell id="lawATDH_7k0T81VRKeOm-60" value="M.id" style="ellipse;whiteSpace=wrap;html=1;" vertex="1" parent="1">
          <mxGeometry x="160" y="500" width="90" height="40" as="geometry" />
        </mxCell>
        <mxCell id="lawATDH_7k0T81VRKeOm-61" value="" style="endArrow=none;html=1;exitX=0.625;exitY=0.044;exitDx=0;exitDy=0;exitPerimeter=0;entryX=0.25;entryY=1;entryDx=0;entryDy=0;" edge="1" parent="1" source="lawATDH_7k0T81VRKeOm-57" target="lawATDH_7k0T81VRKeOm-48">
          <mxGeometry width="50" height="50" relative="1" as="geometry">
            <mxPoint x="90" y="510" as="sourcePoint" />
            <mxPoint x="140" y="460" as="targetPoint" />
          </mxGeometry>
        </mxCell>
        <mxCell id="lawATDH_7k0T81VRKeOm-62" value="" style="endArrow=none;html=1;entryX=0.336;entryY=1.05;entryDx=0;entryDy=0;entryPerimeter=0;exitX=0.5;exitY=0;exitDx=0;exitDy=0;" edge="1" parent="1" source="lawATDH_7k0T81VRKeOm-58" target="lawATDH_7k0T81VRKeOm-48">
          <mxGeometry width="50" height="50" relative="1" as="geometry">
            <mxPoint x="80" y="550" as="sourcePoint" />
            <mxPoint x="130" y="500" as="targetPoint" />
          </mxGeometry>
        </mxCell>
        <mxCell id="lawATDH_7k0T81VRKeOm-63" value="" style="endArrow=none;html=1;exitX=0.367;exitY=0.05;exitDx=0;exitDy=0;exitPerimeter=0;entryX=0.5;entryY=1;entryDx=0;entryDy=0;" edge="1" parent="1" source="lawATDH_7k0T81VRKeOm-59" target="lawATDH_7k0T81VRKeOm-48">
          <mxGeometry width="50" height="50" relative="1" as="geometry">
            <mxPoint x="110" y="520" as="sourcePoint" />
            <mxPoint x="160" y="470" as="targetPoint" />
          </mxGeometry>
        </mxCell>
        <mxCell id="lawATDH_7k0T81VRKeOm-64" value="" style="endArrow=none;html=1;exitX=0.378;exitY=0.05;exitDx=0;exitDy=0;exitPerimeter=0;entryX=0.636;entryY=1.025;entryDx=0;entryDy=0;entryPerimeter=0;" edge="1" parent="1" source="lawATDH_7k0T81VRKeOm-60" target="lawATDH_7k0T81VRKeOm-48">
          <mxGeometry width="50" height="50" relative="1" as="geometry">
            <mxPoint x="130" y="510" as="sourcePoint" />
            <mxPoint x="180" y="460" as="targetPoint" />
          </mxGeometry>
        </mxCell>
        <mxCell id="lawATDH_7k0T81VRKeOm-65" value="EB.id" style="ellipse;whiteSpace=wrap;html=1;" vertex="1" parent="1">
          <mxGeometry x="465" y="510" width="87" height="40" as="geometry" />
        </mxCell>
        <mxCell id="lawATDH_7k0T81VRKeOm-66" value="EB.title" style="ellipse;whiteSpace=wrap;html=1;" vertex="1" parent="1">
          <mxGeometry x="490" y="570" width="70" height="40" as="geometry" />
        </mxCell>
        <mxCell id="lawATDH_7k0T81VRKeOm-67" value="EB.itenerary" style="ellipse;whiteSpace=wrap;html=1;" vertex="1" parent="1">
          <mxGeometry x="580" y="595" width="90" height="50" as="geometry" />
        </mxCell>
        <mxCell id="lawATDH_7k0T81VRKeOm-68" value="EB.date" style="ellipse;whiteSpace=wrap;html=1;" vertex="1" parent="1">
          <mxGeometry x="520" y="650" width="90" height="50" as="geometry" />
        </mxCell>
        <mxCell id="lawATDH_7k0T81VRKeOm-69" value="" style="endArrow=none;html=1;exitX=0.701;exitY=0.025;exitDx=0;exitDy=0;exitPerimeter=0;" edge="1" parent="1" source="lawATDH_7k0T81VRKeOm-65">
          <mxGeometry width="50" height="50" relative="1" as="geometry">
            <mxPoint x="550" y="520" as="sourcePoint" />
            <mxPoint x="600" y="470" as="targetPoint" />
          </mxGeometry>
        </mxCell>
        <mxCell id="lawATDH_7k0T81VRKeOm-70" value="" style="endArrow=none;html=1;exitX=0.714;exitY=0;exitDx=0;exitDy=0;exitPerimeter=0;" edge="1" parent="1" source="lawATDH_7k0T81VRKeOm-66">
          <mxGeometry width="50" height="50" relative="1" as="geometry">
            <mxPoint x="590" y="530" as="sourcePoint" />
            <mxPoint x="600" y="470" as="targetPoint" />
          </mxGeometry>
        </mxCell>
        <mxCell id="lawATDH_7k0T81VRKeOm-71" value="" style="endArrow=none;html=1;entryX=0.429;entryY=1.025;entryDx=0;entryDy=0;entryPerimeter=0;exitX=0.378;exitY=-0.06;exitDx=0;exitDy=0;exitPerimeter=0;" edge="1" parent="1" source="lawATDH_7k0T81VRKeOm-68" target="lawATDH_7k0T81VRKeOm-55">
          <mxGeometry width="50" height="50" relative="1" as="geometry">
            <mxPoint x="600" y="530" as="sourcePoint" />
            <mxPoint x="650" y="480" as="targetPoint" />
          </mxGeometry>
        </mxCell>
        <mxCell id="lawATDH_7k0T81VRKeOm-72" value="" style="endArrow=none;html=1;exitX=0.5;exitY=0;exitDx=0;exitDy=0;" edge="1" parent="1" source="lawATDH_7k0T81VRKeOm-67" target="lawATDH_7k0T81VRKeOm-55">
          <mxGeometry width="50" height="50" relative="1" as="geometry">
            <mxPoint x="673" y="560" as="sourcePoint" />
            <mxPoint x="670" y="470" as="targetPoint" />
          </mxGeometry>
        </mxCell>
        <mxCell id="lawATDH_7k0T81VRKeOm-73" value="C.password" style="ellipse;whiteSpace=wrap;html=1;" vertex="1" parent="1">
          <mxGeometry x="22.5" y="42.5" width="80" height="44.5" as="geometry" />
        </mxCell>
        <mxCell id="lawATDH_7k0T81VRKeOm-74" value="" style="endArrow=none;html=1;exitX=0.863;exitY=-0.05;exitDx=0;exitDy=0;exitPerimeter=0;entryX=0.363;entryY=1;entryDx=0;entryDy=0;entryPerimeter=0;" edge="1" parent="1" source="lawATDH_7k0T81VRKeOm-1" target="lawATDH_7k0T81VRKeOm-73">
          <mxGeometry width="50" height="50" relative="1" as="geometry">
            <mxPoint x="400" y="490" as="sourcePoint" />
            <mxPoint x="50" y="100" as="targetPoint" />
          </mxGeometry>
        </mxCell>
        <mxCell id="lawATDH_7k0T81VRKeOm-75" value="A.password" style="ellipse;whiteSpace=wrap;html=1;" vertex="1" parent="1">
          <mxGeometry x="230" y="39" width="100" height="41" as="geometry" />
        </mxCell>
        <mxCell id="lawATDH_7k0T81VRKeOm-76" value="" style="endArrow=none;html=1;exitX=0.5;exitY=0;exitDx=0;exitDy=0;entryX=0.28;entryY=1;entryDx=0;entryDy=0;entryPerimeter=0;" edge="1" parent="1" source="lawATDH_7k0T81VRKeOm-15" target="lawATDH_7k0T81VRKeOm-75">
          <mxGeometry width="50" height="50" relative="1" as="geometry">
            <mxPoint x="260" y="90" as="sourcePoint" />
            <mxPoint x="310" y="40" as="targetPoint" />
          </mxGeometry>
        </mxCell>
        <mxCell id="lawATDH_7k0T81VRKeOm-77" value="M.password" style="ellipse;whiteSpace=wrap;html=1;" vertex="1" parent="1">
          <mxGeometry x="55" y="600" width="90" height="40" as="geometry" />
        </mxCell>
        <mxCell id="lawATDH_7k0T81VRKeOm-78" value="" style="endArrow=none;html=1;entryX=0.409;entryY=1.05;entryDx=0;entryDy=0;entryPerimeter=0;exitX=0.5;exitY=0;exitDx=0;exitDy=0;" edge="1" parent="1" source="lawATDH_7k0T81VRKeOm-77" target="lawATDH_7k0T81VRKeOm-48">
          <mxGeometry width="50" height="50" relative="1" as="geometry">
            <mxPoint x="100" y="600" as="sourcePoint" />
            <mxPoint x="150" y="460" as="targetPoint" />
          </mxGeometry>
        </mxCell>
        <mxCell id="lawATDH_7k0T81VRKeOm-79" value="EB.password" style="ellipse;whiteSpace=wrap;html=1;" vertex="1" parent="1">
          <mxGeometry x="680" y="540" width="80" height="40" as="geometry" />
        </mxCell>
        <mxCell id="lawATDH_7k0T81VRKeOm-80" value="" style="endArrow=none;html=1;entryX=0.75;entryY=1;entryDx=0;entryDy=0;exitX=0.25;exitY=0.04;exitDx=0;exitDy=0;exitPerimeter=0;" edge="1" parent="1" source="lawATDH_7k0T81VRKeOm-79" target="lawATDH_7k0T81VRKeOm-55">
          <mxGeometry width="50" height="50" relative="1" as="geometry">
            <mxPoint x="400" y="490" as="sourcePoint" />
            <mxPoint x="450" y="440" as="targetPoint" />
          </mxGeometry>
        </mxCell>
        <mxCell id="lawATDH_7k0T81VRKeOm-81" value="EB.customer_id" style="ellipse;whiteSpace=wrap;html=1;" vertex="1" parent="1">
          <mxGeometry x="665" y="640" width="90" height="55" as="geometry" />
        </mxCell>
        <mxCell id="lawATDH_7k0T81VRKeOm-82" value="" style="endArrow=none;html=1;exitX=0.367;exitY=0.055;exitDx=0;exitDy=0;exitPerimeter=0;entryX=0.6;entryY=0.975;entryDx=0;entryDy=0;entryPerimeter=0;" edge="1" parent="1" source="lawATDH_7k0T81VRKeOm-81" target="lawATDH_7k0T81VRKeOm-55">
          <mxGeometry width="50" height="50" relative="1" as="geometry">
            <mxPoint x="620" y="520" as="sourcePoint" />
            <mxPoint x="670" y="470" as="targetPoint" />
          </mxGeometry>
        </mxCell>
      </root>
    </mxGraphModel>
  </diagram>
</mxfile>
